<?xml version="1.0" encoding="UTF-8"?>
<svg id="_Слой_2" data-name="Слой 2" xmlns="http://www.w3.org/2000/svg" viewBox="0 0 173.05 73">
  <defs>
    <style>
      .cls-1 {
        fill: #d946ef;
      }

      .cls-1, .cls-2, .cls-3 {
        stroke-width: 0px;
      }

      .cls-3 {
        fill: #fff;
      }
    </style>
  </defs>
  <g id="_Слой_3" data-name="Слой 3">
    <path class="cls-1" d="m56.98,73H16.02c-8.85,0-16.02-7.17-16.02-16.02V16.02C0,7.17,7.17,0,16.02,0h40.96c8.85,0,16.02,7.17,16.02,16.02v40.96c0,8.85-7.17,16.02-16.02,16.02Z"/>
    <path class="cls-2" d="m66.65,20.88l-21.43,5.31-.5.57c-.16-.27-.32-.55-.49-.82-.18-.08-.36-.16-.53-.24l3.72-.71,7.07-8.86-10.04,2.86-3.24,5.6c-.26-.12-.53-.24-.79-.36-.74.18-1.57.42-2.47.73-.2-1.01-.4-2.02-.61-3.03-3.33-1.28-6.66-2.56-9.99-3.84-.77,3.59-1.54,7.18-2.31,10.76.9.67,1.79,1.34,2.69,2.02-.74.65-1.38,1.27-1.92,1.83-.02.17-.05.35-.07.52l-7.22.77-9.49,8.86,14.84-4.03,1.33-1.81c-.05.36-.1.71-.15,1.07.05.09.1.18.15.27l-16.39,15.89,16.92-.7,3.58-7.86c.87,1.47,1.74,2.94,2.61,4.42,2.12.08,4.23.15,6.35.23-.31,1.3-.62,2.6-.93,3.89.51.77,1.03,1.54,1.54,2.31h9.99c1.54-3.08,3.08-6.15,4.61-9.23-.32-.54-.63-1.08-.95-1.62-1.37-.52-2.74-1.04-4.1-1.56.66-1.76,1.32-3.52,1.98-5.28-.67-1.89-1.33-3.78-2-5.67l10.32,1.06,7.91-13.33Z"/>
    <g>
      <path class="cls-3" d="m94.12,20.43h5.94v13.1h7.99v-13.1h5.94v33.14h-5.94v-14.89h-7.99v14.89h-5.94V20.43Z"/>
      <path class="cls-3" d="m125.73,20.43v33.14h-5.94V20.43h5.94Z"/>
      <path class="cls-3" d="m137.01,53.57l-8.23-33.14h6.39l3.04,14.06c.96,4.41,1.88,9.32,2.27,12.78h.1c.4-3.37,1.61-8.32,2.54-12.66l2.94-14.18h6.21l-8.34,33.14h-6.92Z"/>
      <path class="cls-3" d="m171.74,38.84h-10.64v9.62h11.94l-.73,5.11h-17.07V20.43h17v5.19h-11.14v8.07h10.64v5.15Z"/>
    </g>
  </g>
</svg>